<svg width="163" height="46" viewBox="0 0 163 46" fill="none" xmlns="http://www.w3.org/2000/svg">
<path d="M26.2803 9.94482V33.2564H49.5918V9.94482H26.2803ZM27.2859 14.8112C31.4613 13.2479 33.8674 16.5707 35.9957 19.5122C36.6188 20.3735 37.2111 21.1891 37.8009 21.7888C34.4498 20.1181 30.832 18.7707 27.2859 20.144V14.8112ZM27.2859 21.2335C29.291 20.3377 31.3823 20.4722 33.4528 21.0842C31.6834 21.6443 29.6747 23.267 27.2859 26.0592V21.2335ZM39.3889 23.742C41.8308 25.0289 44.1887 26.2727 46.206 26.2727C47.0673 26.2727 47.8681 26.0456 48.5862 25.499V28.6577C44.3318 30.4888 42.3243 27.7916 40.2008 24.9376C39.88 24.5057 39.5555 24.0714 39.2223 23.6544C39.2791 23.684 39.3346 23.7136 39.3889 23.742ZM48.5862 24.0974C47.2844 25.6915 45.5348 25.5052 43.1054 24.4576C43.2472 24.4515 43.3903 24.4403 43.536 24.4206C45.3954 24.1652 47.0895 22.8228 48.5862 20.4228V24.0974ZM48.5862 10.9504V18.3586C47.0377 21.4606 45.293 23.1658 43.399 23.4249C41.1139 23.7382 39.2247 21.853 38.7004 21.2668L38.6695 21.236C38.0908 20.6931 37.4678 19.8331 36.8089 18.9225C34.7483 16.0759 31.9623 12.225 27.2847 13.7451V10.9504H48.5862ZM27.2859 32.2519V27.6311C30.4643 23.716 32.9518 21.832 34.8791 21.8664C36.6904 21.9022 38.0045 23.668 39.395 25.5384C40.5031 27.0278 41.6494 28.5689 43.1868 29.477C44.0739 30.0001 45.0104 30.263 46.0123 30.263C46.8254 30.263 47.6818 30.0878 48.5862 29.7423V32.2533H27.2859V32.2519Z" fill="#999999"/>
<path d="M101.857 20.4564H99.5211V24.8859C99.5211 25.5091 99.7112 25.9878 100.092 26.3222C100.472 26.6566 101.061 26.7837 101.857 26.7023V27.983C100.623 28.1101 99.6938 27.8942 99.0707 27.334C98.4477 26.775 98.1367 25.9706 98.1367 24.9205V16.6499H99.5211V19.1756H101.857V20.4564Z" fill="#242424"/>
<path d="M114.694 16.2683V27.9838H116.079V17.0098C115.564 16.8273 115.102 16.5805 114.694 16.2683Z" fill="#242424"/>
<path d="M121.14 23.4511L125.707 19.177H123.856L119.634 23.1562V17.3323C119.245 17.3706 118.868 17.3916 118.514 17.3916C118.424 17.3916 118.336 17.3891 118.249 17.3866V27.9831H119.634V23.7435L123.994 27.9831H125.88L121.14 23.4511Z" fill="#242424"/>
<path d="M129.989 28.157C128.108 28.157 126.782 27.5401 126.01 26.3049L127.099 25.509C127.78 26.4554 128.749 26.928 130.006 26.928C130.652 26.928 131.153 26.801 131.511 26.548C131.869 26.2938 132.048 25.9829 132.048 25.614C132.048 25.3956 131.994 25.2043 131.884 25.0426C131.774 24.8811 131.602 24.7515 131.364 24.6528C131.128 24.5554 130.906 24.48 130.698 24.4282C130.491 24.3764 130.213 24.3159 129.868 24.2469C129.741 24.2234 129.648 24.2061 129.592 24.195C129.234 24.126 128.926 24.0568 128.666 23.9877C128.408 23.9187 128.12 23.8175 127.81 23.6854C127.499 23.5534 127.247 23.4005 127.057 23.2264C126.867 23.0537 126.706 22.8279 126.572 22.5515C126.438 22.2752 126.373 21.958 126.373 21.6003C126.373 20.8734 126.69 20.2589 127.325 19.7581C127.959 19.2559 128.779 19.0054 129.781 19.0054C131.362 19.0054 132.538 19.5248 133.311 20.5625L132.24 21.3238C131.616 20.5514 130.792 20.164 129.766 20.164C129.212 20.164 128.748 20.2973 128.372 20.5625C127.998 20.8278 127.81 21.1573 127.81 21.5484C127.81 21.9642 127.977 22.2665 128.312 22.4565C128.646 22.6465 129.153 22.8057 129.835 22.9328C131.023 23.1636 131.836 23.4005 132.274 23.6422C133.069 24.0802 133.468 24.7317 133.468 25.5979C133.468 26.2556 133.165 26.8466 132.56 27.371C131.953 27.8942 131.097 28.157 129.989 28.157Z" fill="#242424"/>
<path d="M134.001 17.142C134.358 16.7817 134.803 16.6016 135.336 16.6016C135.869 16.6016 136.313 16.7817 136.67 17.142C137.026 17.5023 137.204 17.9453 137.204 18.4709C137.204 18.9966 137.025 19.4394 136.67 19.7998C136.313 20.1601 135.869 20.3402 135.336 20.3402C134.803 20.3402 134.358 20.1601 134.001 19.7998C133.646 19.4394 133.468 18.9966 133.468 18.4709C133.468 17.944 133.646 17.5011 134.001 17.142ZM134.335 19.4616C134.601 19.7356 134.936 19.8714 135.337 19.8714C135.738 19.8714 136.072 19.7343 136.338 19.4616C136.606 19.1877 136.738 18.8583 136.738 18.4696C136.738 18.0822 136.606 17.7515 136.338 17.4776C136.072 17.2037 135.738 17.068 135.337 17.068C134.936 17.068 134.601 17.205 134.335 17.4776C134.069 17.7515 133.935 18.081 133.935 18.4696C133.935 18.8583 134.069 19.189 134.335 19.4616ZM136.146 18.1378C136.146 18.4351 136.018 18.6424 135.763 18.7609L136.188 19.3938H135.659L135.295 18.8337H135.098V19.3938H134.651V17.4529H135.419C135.64 17.4529 135.817 17.5171 135.95 17.6454C136.081 17.7725 136.146 17.9379 136.146 18.1378ZM135.098 18.4178H135.419C135.496 18.4178 135.563 18.3931 135.622 18.3451C135.681 18.2969 135.711 18.2278 135.711 18.1378C135.711 17.965 135.614 17.8787 135.419 17.8787H135.098V18.4178Z" fill="#999999"/>
<path d="M66.6684 14.9827H68.0614V28.0457H66.6684V26.391C65.8553 27.6101 64.7004 28.2196 63.2024 28.2196C61.9254 28.2196 60.8656 27.784 60.024 26.913C59.1813 26.0419 58.7617 24.9388 58.7617 23.6038C58.7617 22.2798 59.1825 21.1829 60.024 20.3118C60.8656 19.4406 61.9254 19.0052 63.2024 19.0052C64.7004 19.0052 65.8553 19.6147 66.6684 20.8338V14.9827ZM61.0951 25.9728C61.7107 26.6231 62.4831 26.9488 63.4109 26.9488C64.3401 26.9488 65.115 26.6243 65.7356 25.9728C66.3562 25.3225 66.6671 24.5328 66.6671 23.6038C66.6671 22.6746 66.3562 21.8887 65.7356 21.2434C65.115 20.5993 64.3389 20.2772 63.4109 20.2772C62.4819 20.2772 61.7095 20.5993 61.0951 21.2434C60.4793 21.8874 60.1721 22.6746 60.1721 23.6038C60.1709 24.5328 60.4793 25.3225 61.0951 25.9728Z" fill="#999999"/>
<path d="M77.7644 19.1806H79.1574V28.0459H77.7644V26.4086C77.3819 26.9774 76.8908 27.4216 76.2924 27.7412C75.6939 28.0607 75.035 28.2199 74.3157 28.2199C73.0387 28.2199 71.9788 27.7844 71.1373 26.9132C70.2946 26.0422 69.875 24.9391 69.875 23.604C69.875 22.28 70.2958 21.1831 71.1373 20.3121C71.9788 19.4409 73.0387 19.0054 74.3157 19.0054C75.7902 19.0054 76.9402 19.6038 77.7644 20.7994V19.1806ZM74.5242 26.949C75.3954 26.949 76.132 26.6641 76.7366 26.0952C77.34 25.5264 77.683 24.8181 77.7644 23.9705V23.256C77.683 22.4084 77.34 21.7001 76.7366 21.1313C76.132 20.5625 75.3954 20.2775 74.5242 20.2775C73.5952 20.2775 72.8228 20.5995 72.2083 21.2436C71.5925 21.8877 71.2854 22.6749 71.2854 23.604C71.2854 24.5331 71.5925 25.3229 72.2083 25.973C72.824 26.6233 73.5964 26.949 74.5242 26.949Z" fill="#999999"/>
<path d="M85.2712 20.4686H82.9194V24.9277C82.9194 25.5546 83.1107 26.037 83.4944 26.3739C83.8782 26.7107 84.4704 26.8378 85.2712 26.7575V28.047C84.0287 28.1741 83.0946 27.9569 82.4666 27.3942C81.8399 26.8316 81.5264 26.021 81.5264 24.9648V16.6387H82.9194V19.1816H85.2712V20.4686Z" fill="#999999"/>
<path d="M94.3455 19.1806H95.7385V28.0459H94.3455V26.4086C93.9617 26.9774 93.4719 27.4216 92.8734 27.7412C92.275 28.0607 91.6161 28.2199 90.8968 28.2199C89.6198 28.2199 88.5599 27.7844 87.7184 26.9132C86.8756 26.0422 86.4561 24.9391 86.4561 23.604C86.4561 22.28 86.8768 21.1831 87.7184 20.3121C88.5599 19.4409 89.6198 19.0054 90.8968 19.0054C92.3712 19.0054 93.5213 19.6038 94.3455 20.7994V19.1806ZM91.1053 26.949C91.9764 26.949 92.713 26.6641 93.3176 26.0952C93.921 25.5264 94.264 24.8181 94.3455 23.9705V23.256C94.264 22.4084 93.921 21.7001 93.3176 21.1313C92.7143 20.5625 91.9764 20.2775 91.1053 20.2775C90.1762 20.2775 89.4038 20.5995 88.7894 21.2436C88.1736 21.8877 87.8664 22.6749 87.8664 23.604C87.8664 24.5331 88.1736 25.3229 88.7894 25.973C89.4038 26.6233 90.1762 26.949 91.1053 26.949Z" fill="#999999"/>
<path d="M110.86 19.1801V20.8001C110.036 19.6045 108.886 19.0061 107.411 19.0061C106.134 19.0061 105.075 19.4417 104.233 20.3128C103.391 21.1839 102.971 22.2808 102.971 23.6047C102.971 24.9398 103.391 26.0429 104.233 26.914C105.075 27.7851 106.134 28.2207 107.411 28.2207C108.131 28.2207 108.79 28.0602 109.388 27.7419C109.415 27.7271 109.44 27.7086 109.467 27.6938V26.3897C108.938 26.7598 108.323 26.9485 107.621 26.9485C106.692 26.9485 105.92 26.624 105.304 25.9725C104.688 25.3223 104.381 24.5327 104.381 23.6035C104.381 22.6745 104.688 21.8884 105.304 21.2431C105.92 20.599 106.692 20.277 107.621 20.277C108.492 20.277 109.229 20.562 109.833 21.1308C110.437 21.6997 110.78 22.4079 110.861 23.2556V23.3049V23.97V26.4081V28.0454H112.254V19.1801H110.86Z" fill="#242424"/>
</svg>
