<svg width="162" height="46" viewBox="0 0 162 46" fill="none" xmlns="http://www.w3.org/2000/svg">
<path d="M45.5502 27.4178L43.1653 23.8814C45.2235 21.7241 45.9383 20.2238 45.9383 17.8984C45.9383 13.2507 42.5646 9.94482 37.4745 9.94482H29.8393C26.9123 9.94482 24.8232 12.0897 24.8232 15.1528V30.8669C24.8232 33.3884 26.7891 35.3589 29.7192 35.3589C32.6493 35.3589 34.572 33.3355 34.572 30.8015V28.4077L37.4991 32.9122C38.4821 34.4094 39.9456 35.3589 41.711 35.3589C44.6412 35.3589 46.6409 33.2887 46.6409 30.3595C46.6409 29.5595 46.268 28.4606 45.5502 27.4178Z" fill="#CBCBCB"/>
<path d="M56.4065 19.0931V27.2925C56.4065 28.2812 55.7712 28.8567 54.6947 28.8567C53.6181 28.8567 52.9893 28.2749 52.9893 27.2925V18.8178C52.9893 17.4007 54.0341 16.4998 55.3997 16.4998H58.6231C61.4591 16.4998 63.0216 18.2297 63.0216 20.1693C63.0216 21.3862 62.596 22.3591 61.2653 23.3539L63.1454 26.3259C63.3154 26.573 63.4102 26.8628 63.4185 27.1612C63.4268 27.3931 63.3859 27.6243 63.2986 27.8397C63.2112 28.0552 63.0792 28.2504 62.911 28.4129C62.7427 28.5753 62.5421 28.7015 62.3215 28.7832C62.1012 28.8651 61.8657 28.9008 61.6305 28.888C61.3168 28.8952 61.0073 28.8153 60.7371 28.6577C60.4671 28.5002 60.2474 28.271 60.103 27.9964L57.664 24.1298C57.4145 23.7812 57.2764 23.3674 57.267 22.941C57.267 22.3591 57.5846 21.8868 58.1054 21.8461L58.5787 21.8117C59.1947 21.7648 59.5504 21.186 59.5504 20.4915C59.5628 20.3009 59.533 20.11 59.4632 19.9319C59.3934 19.7536 59.2851 19.5925 59.1459 19.4596C59.0067 19.3267 58.8399 19.225 58.657 19.1618C58.474 19.0985 58.2794 19.0751 58.0864 19.0931H56.4065Z" fill="#555555"/>
<path d="M75.8922 26.504C75.9927 26.7377 76.0456 26.9885 76.0477 27.2422C76.0602 27.4611 76.0251 27.68 75.9445 27.8844C75.864 28.0888 75.74 28.2737 75.5808 28.427C75.4217 28.5801 75.2311 28.698 75.0219 28.7726C74.8126 28.8473 74.5896 28.8769 74.3679 28.8597C73.504 28.8597 72.9958 28.4499 72.7164 27.5677L72.167 25.8658H67.9528L67.4129 27.5677C67.1303 28.4529 66.6221 28.8597 65.7615 28.8597C65.5405 28.8745 65.3189 28.8431 65.1111 28.7674C64.9034 28.6918 64.7143 28.5738 64.5562 28.421C64.3981 28.2682 64.2746 28.0842 64.1939 27.8811C64.1132 27.6779 64.0771 27.4603 64.0878 27.2422C64.0889 26.9888 64.1406 26.7378 64.2403 26.504L67.5114 18.0167C67.9369 16.9218 68.6769 16.3806 70.0964 16.3806C71.516 16.3806 72.275 16.9124 72.691 18.0167L75.8922 26.504ZM68.9055 22.8438H71.173L70.0456 19.3212L68.9055 22.8438Z" fill="#555555"/>
<path d="M80.6463 27.2926C80.6463 28.2811 80.0397 28.8568 78.9759 28.8568C77.912 28.8568 77.3086 28.2749 77.3086 27.2926V17.9419C77.3086 16.9565 77.9151 16.3777 78.9759 16.3777C80.0366 16.3777 80.6463 16.9596 80.6463 17.9419V27.2926Z" fill="#555555"/>
<path d="M93.8918 27.2579C93.9106 27.4727 93.8816 27.6891 93.8067 27.8917C93.7319 28.0944 93.613 28.2786 93.4586 28.4313C93.3041 28.5841 93.1176 28.7019 92.9122 28.7763C92.7068 28.8509 92.4872 28.8803 92.269 28.8627C91.8511 28.8895 91.4334 28.805 91.0602 28.6178C90.6868 28.4306 90.3715 28.1477 90.1476 27.7991L85.9842 22.265V27.2923C85.9842 28.2809 85.349 28.8564 84.2915 28.8564C83.234 28.8564 82.6019 28.2746 82.6019 27.2923V17.9823C82.5837 17.7673 82.6132 17.551 82.6884 17.3482C82.7637 17.1455 82.8828 16.9615 83.0375 16.8088C83.1922 16.6561 83.3789 16.5384 83.5844 16.4639C83.7901 16.3894 84.0096 16.3599 84.228 16.3775C85.0758 16.3775 85.5936 16.6621 86.1937 17.4599L90.5287 23.2192V17.9417C90.5287 16.9562 91.1638 16.3775 92.2151 16.3775C93.2662 16.3775 93.9045 16.9594 93.9045 17.9417L93.8918 27.2579Z" fill="#555555"/>
<path d="M98.2561 28.7409C96.8841 28.7409 95.8457 27.8399 95.8457 26.4228V18.8178C95.8457 17.4007 96.8874 16.4998 98.2561 16.4998H101.765C104.43 16.4998 105.837 17.992 105.837 19.5875C105.837 20.479 105.538 21.1829 104.531 22.0026C106.011 22.5624 106.755 23.6261 106.755 24.8993C106.755 27.0674 104.96 28.7409 102.023 28.7409H98.2561ZM99.2596 19.1431V26.0036H102.038C103.086 26.0036 103.452 25.5563 103.452 24.9401C103.452 24.3237 102.921 23.9014 102.029 23.9014H101.422C100.717 23.9014 100.069 23.4822 100.069 22.4186C100.069 21.5521 100.533 21.1172 101.276 21.089L101.768 21.0671C101.875 21.0641 101.979 21.0397 102.076 20.9955C102.172 20.9513 102.258 20.8881 102.329 20.81C102.4 20.7317 102.454 20.6401 102.487 20.5407C102.521 20.4414 102.533 20.3363 102.524 20.2319C102.524 19.5499 102.032 19.1401 101.152 19.1401L99.2596 19.1431Z" fill="#555555"/>
<path d="M113.777 29.0505C109.553 29.0505 107.625 25.9785 107.625 22.5811C107.625 18.7832 110.092 16.2524 113.78 16.2524C117.466 16.2524 119.935 18.7801 119.935 22.5811C119.935 25.9628 118.003 29.0505 113.78 29.0505H113.777ZM113.78 19.1399C112.392 19.1399 111.194 19.9939 111.194 22.5561C111.194 24.9523 112.259 26.1225 113.78 26.1225C115.129 26.1225 116.365 24.9523 116.365 22.5561C116.365 20.1598 115.165 19.143 113.777 19.143" fill="#555555"/>
<path d="M131.25 18.0482L132.606 23.6792L134.083 17.7353C134.139 17.341 134.346 16.9827 134.661 16.7333C134.976 16.4839 135.376 16.3622 135.778 16.3932C136.003 16.3799 136.229 16.4138 136.44 16.4928C136.65 16.572 136.841 16.6943 137 16.8516C137.159 17.0091 137.282 17.198 137.36 17.406C137.44 17.6139 137.473 17.836 137.459 18.0576C137.452 18.2338 137.426 18.409 137.382 18.58L134.896 27.4738C134.629 28.4468 133.863 28.8629 132.707 28.8629C131.755 28.8629 130.923 28.5188 130.662 27.4738L129.074 21.2172L127.544 27.4738C127.293 28.5219 126.445 28.8629 125.498 28.8629C124.336 28.8629 123.593 28.4437 123.307 27.4738L120.82 18.5643C120.775 18.3937 120.749 18.2183 120.745 18.0419C120.729 17.8203 120.763 17.5982 120.842 17.3903C120.921 17.1825 121.044 16.9935 121.202 16.836C121.361 16.6786 121.553 16.5563 121.764 16.4773C121.974 16.3982 122.199 16.3642 122.424 16.3776C122.822 16.3531 123.216 16.4754 123.527 16.7205C123.839 16.9657 124.047 17.3162 124.111 17.704L125.588 23.6479L126.944 18.0168C127.166 17.0784 128.017 16.5997 129.096 16.5997C130.177 16.5997 131.028 17.0753 131.25 18.0168" fill="#555555"/>
</svg>
