<svg width="848" height="200" viewBox="0 0 848 200" fill="none" xmlns="http://www.w3.org/2000/svg">
<path d="M678.846 185.661C677.878 182.542 677.287 179.378 677.073 176.171C676.89 172.905 677.052 169.727 677.559 166.638C678.052 163.504 678.866 160.54 680.002 157.744C681.168 154.89 682.587 152.299 684.259 149.972C685.976 147.632 687.944 145.628 690.163 143.962C692.368 142.251 694.785 140.988 697.415 140.171C700.49 139.217 703.075 139.123 705.17 139.89C707.31 140.643 708.739 142.178 709.458 144.495C709.735 145.387 709.885 146.342 709.908 147.361C709.976 148.366 709.91 149.413 709.71 150.501C709.541 151.531 709.276 152.566 708.915 153.606C708.554 154.647 708.091 155.596 707.527 156.456C706.313 156.637 705.151 156.436 704.042 155.852C702.918 155.223 702.065 154.364 701.482 153.275C702.641 151.498 703.452 149.78 703.914 148.122C704.407 146.405 704.474 144.968 704.115 143.809C703.506 141.848 701.976 141.248 699.525 142.009C698.499 142.327 697.499 142.882 696.523 143.673C695.578 144.406 694.666 145.325 693.787 146.428C692.908 147.532 692.099 148.785 691.362 150.186C690.669 151.574 690.077 153.053 689.587 154.622C686.159 165.459 685.891 175.534 688.782 184.849C689.806 188.147 691.142 190.64 692.789 192.328C694.437 194.015 696.163 194.774 697.967 194.605C699.745 193.564 701.794 191.585 704.113 188.666C706.432 185.747 708.831 182.144 711.312 177.856C711.896 178.163 712.308 178.548 712.55 179.011C711.783 181.105 710.951 183.147 710.054 185.136C709.156 187.125 708.217 188.98 707.237 190.701C706.301 192.409 705.317 193.96 704.284 195.356C703.296 196.737 702.328 197.869 701.379 198.749C695.825 200.376 691.145 200.094 687.338 197.904C683.531 195.714 680.7 191.634 678.846 185.661ZM723.92 182.224C724.132 180.546 724.346 178.403 724.563 175.795C724.779 173.187 724.985 170.386 725.18 167.394C725.361 164.357 725.551 161.269 725.749 158.129C725.933 154.944 726.099 151.937 726.246 149.106C726.393 146.275 726.49 143.753 726.536 141.54C726.626 139.313 726.662 137.616 726.642 136.45C724.193 138.48 722.333 140.987 721.061 143.972C719.789 146.957 719.193 150.391 719.275 154.275C718.139 154.236 717.01 153.903 715.886 153.275C714.749 152.601 713.832 151.616 713.136 150.317C712.945 148.128 713.188 146.001 713.866 143.934C714.588 141.853 715.698 139.92 717.197 138.135C718.695 136.351 720.573 134.766 722.831 133.381C725.074 131.952 727.6 130.801 730.408 129.93C733.974 128.823 737.415 128.341 740.734 128.484C744.038 128.582 747.05 129.235 749.771 130.443C752.491 131.65 754.861 133.382 756.881 135.638C758.9 137.894 760.408 140.627 761.404 143.836C762.76 148.204 763.251 152.62 762.878 157.084C762.505 161.549 761.407 165.726 759.585 169.614C757.807 173.489 755.389 176.878 752.333 179.781C749.29 182.729 745.785 184.819 741.819 186.05C738.164 187.184 734.794 187.424 731.707 186.77C728.68 186.146 726.084 184.631 723.92 182.224ZM734.32 132.38C732.092 133.072 730.072 134.041 728.26 135.288C730.442 135.392 732.304 135.645 733.846 136.046C735.373 136.402 736.452 136.727 737.08 137.021C736.876 137.622 736.611 138.657 736.285 140.126C736.004 141.581 735.672 143.346 735.289 145.419C734.951 147.478 734.602 149.737 734.241 152.194C733.866 154.607 733.534 157.08 733.246 159.613C732.462 166.062 731.996 171.093 731.847 174.706C731.743 178.306 731.885 180.729 732.272 181.977C732.965 182.006 733.771 181.927 734.69 181.739C735.609 181.552 736.581 181.299 737.606 180.981C741.216 179.86 744.37 177.977 747.067 175.332C749.795 172.629 751.926 169.499 753.461 165.944C755.041 162.376 755.948 158.527 756.181 154.399C756.445 150.213 755.941 146.069 754.668 141.969C753.243 137.378 750.71 134.256 747.069 132.601C743.428 130.946 739.178 130.872 734.32 132.38ZM806.852 160.585C806.576 161.111 806.113 161.743 805.462 162.482C804.871 163.252 804.192 163.976 803.425 164.654C802.672 165.376 801.876 166.039 801.037 166.641C800.256 167.275 799.583 167.704 799.017 167.928C798.438 168.108 797.856 168.044 797.272 167.737C796.688 167.429 795.902 166.55 794.913 165.097C793.939 163.69 792.654 161.596 791.059 158.818C789.494 155.981 787.419 152.13 784.833 147.264C783.109 150.682 781.536 153.956 780.113 157.085C778.69 160.214 777.524 163.068 776.614 165.647C775.704 168.226 775.046 170.434 774.639 172.271C774.231 174.107 774.152 175.427 774.401 176.229C773.853 176.35 773.233 176.323 772.543 176.146C771.898 175.955 771.276 175.684 770.678 175.332C770.08 174.98 769.536 174.563 769.044 174.081C768.596 173.584 768.29 173.069 768.124 172.534C768.105 172.002 768.225 171.207 768.483 170.15C768.741 169.093 769.112 167.927 769.596 166.653C770.612 163.943 772.237 160.678 774.472 156.857C776.737 152.978 779.558 148.608 782.936 143.748C775.57 130.252 769.236 124.327 763.932 125.973C764.066 124.515 764.56 123.115 765.414 121.775C766.313 120.421 767.396 119.425 768.664 118.787C770.135 118.331 771.401 118.158 772.461 118.268C773.508 118.334 774.645 119.007 775.873 120.288C777.101 121.568 778.571 123.628 780.284 126.468C781.982 129.263 784.234 133.133 787.039 138.077C788.026 136.061 788.938 134.043 789.777 132.023C790.647 129.945 791.426 127.969 792.115 126.094C792.803 124.219 793.392 122.496 793.882 120.927C794.373 119.358 794.717 118.029 794.917 116.941C795.145 115.942 795.12 114.997 794.843 114.106C794.594 113.304 794.024 112.332 793.132 111.192C794.822 111.596 796.14 112.066 797.089 112.603C798.068 113.08 799.025 113.883 799.961 115.009C800.204 116.106 800.224 117.273 800.021 118.509C799.863 119.73 799.373 121.3 798.551 123.216C797.759 125.074 796.588 127.441 795.038 130.317C793.487 133.192 791.412 136.817 788.812 141.191C790.904 144.94 792.78 148.071 794.44 150.585C796.1 153.1 797.63 155.117 799.03 156.636C800.417 158.112 801.745 159.165 803.016 159.797C804.274 160.384 805.552 160.647 806.852 160.585ZM847.176 108.269C847.937 110.72 848.039 113.254 847.483 115.869C846.971 118.471 845.931 120.944 844.362 123.288C842.824 125.574 840.803 127.642 838.299 129.494C835.84 131.333 833.051 132.736 829.931 133.705C828.817 134.05 827.884 134.193 827.133 134.133C826.412 134.015 825.519 133.657 824.454 133.059C823.733 138.609 823.296 143.656 823.143 148.199C823.02 152.683 823.153 156.966 823.54 161.048C821.722 161.173 820.119 160.889 818.731 160.196C817.357 159.547 815.99 158.604 814.628 157.365C814.811 156.38 815 155.1 815.195 153.524C815.39 151.949 815.622 150.02 815.89 147.738C816.145 145.411 816.416 142.664 816.704 139.496C817.022 136.27 817.395 132.514 817.823 128.228C817.997 126.268 818.15 124.559 818.284 123.101C818.418 121.642 818.512 120.294 818.567 119.055C818.609 117.772 818.612 116.524 818.579 115.313C818.589 114.088 818.565 112.752 818.507 111.304C816.62 112.623 814.923 114.005 813.417 115.45C811.955 116.881 810.798 118.266 809.943 119.606C809.459 119.464 808.911 119.194 808.299 118.797C807.732 118.387 807.174 117.925 806.623 117.412C806.059 116.854 805.54 116.282 805.065 115.697C804.59 115.111 804.247 114.558 804.037 114.037C805.052 112.745 806.401 111.422 808.082 110.069C809.763 108.717 811.613 107.434 813.631 106.221C815.635 104.964 817.747 103.82 819.968 102.788C822.233 101.743 824.435 100.889 826.575 100.224C829.115 99.4359 831.514 99.0576 833.772 99.0898C836.016 99.0773 838.031 99.4291 839.817 100.145C841.602 100.861 843.123 101.904 844.379 103.273C845.635 104.643 846.567 106.308 847.176 108.269ZM832.786 103.94C831.092 104.466 829.395 105.139 827.696 105.96L828.871 106.914C828.605 107.632 828.318 108.674 828.009 110.04C827.701 111.407 827.401 113.039 827.111 114.937C826.806 116.791 826.475 118.872 826.117 121.182C825.804 123.478 825.458 125.907 825.08 128.467C828.557 127.388 831.624 126.094 834.283 124.584C836.928 123.03 839.08 121.385 840.74 119.648C842.43 117.853 843.598 116.025 844.241 114.164C844.93 112.289 845.004 110.482 844.465 108.744C843.745 106.426 842.391 104.819 840.402 103.921C838.4 102.979 835.861 102.986 832.786 103.94Z" fill="#102137"/>
<path d="M120 0H0V120H120V0Z" fill="#102137"/>
<path d="M54.2859 11.4285H11.4287V54.2856H54.2859V11.4285Z" fill="white"/>
<path d="M108.572 11.4285H65.7144V54.2856H108.572V11.4285Z" fill="#E23132"/>
<path d="M108.572 65.7144H65.7144V108.572H108.572V65.7144Z" fill="white"/>
<path d="M54.2859 65.7144H11.4287V108.572H54.2859V65.7144Z" fill="#E23132"/>
<path d="M207.508 80.4785C207.508 83.9902 206.68 87.4616 205.025 90.8925C203.411 94.3235 201.13 97.2298 198.184 99.6113C194.954 102.195 191.18 104.213 186.861 105.666C182.583 107.119 177.416 107.846 171.361 107.846C164.863 107.846 159.01 107.24 153.803 106.029C148.636 104.818 143.368 103.022 138 100.641V85.625H138.848C143.409 89.4192 148.676 92.3457 154.65 94.4043C160.624 96.4629 166.235 97.4921 171.482 97.4921C178.91 97.4921 184.682 96.0996 188.799 93.3144C192.956 90.5293 195.035 86.8157 195.035 82.1738C195.035 78.1777 194.046 75.2311 192.068 73.3339C190.131 71.4368 187.164 69.9635 183.168 68.914C180.141 68.1067 176.851 67.4407 173.299 66.916C169.787 66.3912 166.053 65.7252 162.098 64.9179C154.106 63.2226 148.172 60.3366 144.297 56.2597C140.462 52.1425 138.545 46.7942 138.545 40.2148C138.545 32.6666 141.734 26.4908 148.111 21.6875C154.489 16.8437 162.582 14.4219 172.391 14.4219C178.728 14.4219 184.54 15.0273 189.828 16.2383C195.116 17.4492 199.798 18.9427 203.875 20.7187V34.8867H203.027C199.596 31.9804 195.076 29.5787 189.465 27.6816C183.895 25.7441 178.183 24.7754 172.33 24.7754C165.912 24.7754 160.745 26.1074 156.83 28.7714C152.955 31.4355 151.018 34.8665 151.018 39.0644C151.018 42.8183 151.986 45.7649 153.924 47.9043C155.861 50.0436 159.272 51.6783 164.156 52.8086C166.74 53.3737 170.413 54.0599 175.176 54.8671C179.939 55.6744 183.975 56.5019 187.285 57.3496C193.986 59.1256 199.031 61.8099 202.422 65.4023C205.813 68.9948 207.508 74.0201 207.508 80.4785ZM282.465 73.5761H232.635C232.635 77.7337 233.26 81.3665 234.512 84.4746C235.763 87.5423 237.479 90.0651 239.658 92.0429C241.757 93.9804 244.24 95.4336 247.106 96.4023C250.012 97.3711 253.201 97.8554 256.672 97.8554C261.274 97.8554 265.895 96.9472 270.537 95.1308C275.22 93.2741 278.55 91.4576 280.528 89.6816H281.133V102.094C277.298 103.708 273.383 105.061 269.387 106.15C265.391 107.24 261.193 107.785 256.793 107.785C245.572 107.785 236.813 104.758 230.516 98.7031C224.219 92.608 221.07 83.97 221.07 72.789C221.07 61.7291 224.078 52.9498 230.092 46.4511C236.147 39.9524 244.099 36.7031 253.948 36.7031C263.07 36.7031 270.093 39.3671 275.018 44.6953C279.983 50.0234 282.465 57.5918 282.465 67.4004V73.5761ZM271.385 64.8574C271.345 58.8834 269.831 54.2617 266.844 50.9921C263.897 47.7226 259.397 46.0879 253.342 46.0879C247.247 46.0879 242.383 47.8841 238.75 51.4765C235.158 55.069 233.119 59.5293 232.635 64.8574H271.385ZM357.362 72.4257C357.362 83.4453 354.536 92.1438 348.885 98.5214C343.234 104.899 335.666 108.088 326.18 108.088C316.614 108.088 309.005 104.899 303.354 98.5214C297.743 92.1438 294.938 83.4453 294.938 72.4257C294.938 61.4062 297.743 52.7076 303.354 46.33C309.005 39.9121 316.614 36.7031 326.18 36.7031C335.666 36.7031 343.234 39.9121 348.885 46.33C354.536 52.7076 357.362 61.4062 357.362 72.4257ZM345.616 72.4257C345.616 63.6666 343.9 57.1679 340.469 52.9297C337.038 48.651 332.275 46.5117 326.18 46.5117C320.004 46.5117 315.201 48.651 311.77 52.9297C308.379 57.1679 306.684 63.6666 306.684 72.4257C306.684 80.9023 308.399 87.3405 311.83 91.7402C315.261 96.0996 320.045 98.2793 326.18 98.2793C332.235 98.2793 336.977 96.1198 340.408 91.8007C343.88 87.4414 345.616 80.983 345.616 72.4257ZM473.733 106.211H462.35V67.7031C462.35 64.7968 462.209 61.9915 461.926 59.2871C461.684 56.5826 461.139 54.4231 460.291 52.8086C459.363 51.0729 458.031 49.761 456.295 48.873C454.56 47.985 452.057 47.541 448.787 47.541C445.599 47.541 442.41 48.3483 439.221 49.9629C436.032 51.5371 432.843 53.5553 429.655 56.0175C429.776 56.9459 429.877 58.0358 429.957 59.2871C430.038 60.498 430.078 61.7089 430.078 62.9199V106.211H418.696V67.7031C418.696 64.7161 418.554 61.8906 418.272 59.2265C418.03 56.5221 417.485 54.3626 416.637 52.748C415.709 51.0123 414.377 49.7207 412.641 48.873C410.905 47.985 408.403 47.541 405.133 47.541C402.025 47.541 398.897 48.3079 395.748 49.8418C392.64 51.3756 389.532 53.3333 386.424 55.7148V106.211H375.041V38.58H386.424V46.0879C389.976 43.1412 393.508 40.8405 397.02 39.1855C400.572 37.5306 404.346 36.7031 408.342 36.7031C412.944 36.7031 416.839 37.6718 420.028 39.6093C423.257 41.5468 425.658 44.2311 427.233 47.6621C431.834 43.7871 436.032 41.0019 439.826 39.3066C443.621 37.5709 447.677 36.7031 451.996 36.7031C459.423 36.7031 464.893 38.9635 468.405 43.4843C471.957 47.9648 473.733 54.2415 473.733 62.3144V106.211ZM553.291 72.4257C553.291 83.4453 550.466 92.1438 544.815 98.5214C539.164 104.899 531.595 108.088 522.11 108.088C512.543 108.088 504.935 104.899 499.283 98.5214C493.673 92.1438 490.867 83.4453 490.867 72.4257C490.867 61.4062 493.673 52.7076 499.283 46.33C504.935 39.9121 512.543 36.7031 522.11 36.7031C531.595 36.7031 539.164 39.9121 544.815 46.33C550.466 52.7076 553.291 61.4062 553.291 72.4257ZM541.545 72.4257C541.545 63.6666 539.83 57.1679 536.399 52.9297C532.968 48.651 528.205 46.5117 522.11 46.5117C515.934 46.5117 511.13 48.651 507.699 52.9297C504.309 57.1679 502.614 63.6666 502.614 72.4257C502.614 80.9023 504.329 87.3405 507.76 91.7402C511.191 96.0996 515.974 98.2793 522.11 98.2793C528.164 98.2793 532.907 96.1198 536.338 91.8007C539.81 87.4414 541.545 80.983 541.545 72.4257ZM627.522 106.211H616.139V67.7031C616.139 64.595 615.957 61.6888 615.594 58.9843C615.231 56.2395 614.565 54.1002 613.596 52.5664C612.587 50.8711 611.134 49.6198 609.237 48.8125C607.339 47.9648 604.877 47.541 601.85 47.541C598.742 47.541 595.492 48.3079 592.102 49.8418C588.711 51.3756 585.462 53.3333 582.354 55.7148V106.211H570.971V38.58H582.354V46.0879C585.906 43.1412 589.579 40.8405 593.373 39.1855C597.168 37.5306 601.063 36.7031 605.059 36.7031C612.365 36.7031 617.935 38.903 621.77 43.3027C625.604 47.7024 627.522 54.0397 627.522 62.3144V106.211ZM704.295 106.211H692.912V99.1269C689.643 101.952 686.232 104.152 682.68 105.727C679.128 107.301 675.273 108.088 671.116 108.088C663.043 108.088 656.625 104.98 651.862 98.7636C647.139 92.5475 644.778 83.9297 644.778 72.9101C644.778 67.1783 645.585 62.0722 647.199 57.5918C648.854 53.1113 651.075 49.2968 653.86 46.1484C656.604 43.0807 659.793 40.7395 663.426 39.125C667.099 37.5104 670.894 36.7031 674.809 36.7031C678.361 36.7031 681.509 37.0866 684.254 37.8535C686.999 38.58 689.885 39.7304 692.912 41.3047V12H704.295V106.211ZM692.912 89.5605V50.75C689.845 49.3776 687.1 48.429 684.678 47.9043C682.256 47.3795 679.612 47.1171 676.746 47.1171C670.369 47.1171 665.404 49.3372 661.852 53.7773C658.3 58.2174 656.524 64.5143 656.524 72.6679C656.524 80.7005 657.896 86.8157 660.641 91.0136C663.386 95.1712 667.785 97.25 673.84 97.25C677.069 97.25 680.339 96.5436 683.649 95.1308C686.959 93.6777 690.047 91.8209 692.912 89.5605ZM784.338 72.4257C784.338 83.4453 781.513 92.1438 775.862 98.5214C770.211 104.899 762.642 108.088 753.157 108.088C743.59 108.088 735.981 104.899 730.33 98.5214C724.72 92.1438 721.914 83.4453 721.914 72.4257C721.914 61.4062 724.72 52.7076 730.33 46.33C735.981 39.9121 743.59 36.7031 753.157 36.7031C762.642 36.7031 770.211 39.9121 775.862 46.33C781.513 52.7076 784.338 61.4062 784.338 72.4257ZM772.592 72.4257C772.592 63.6666 770.877 57.1679 767.446 52.9297C764.015 48.651 759.252 46.5117 753.157 46.5117C746.981 46.5117 742.177 48.651 738.746 52.9297C735.356 57.1679 733.66 63.6666 733.66 72.4257C733.66 80.9023 735.376 87.3405 738.807 91.7402C742.238 96.0996 747.021 98.2793 753.157 98.2793C759.211 98.2793 763.954 96.1198 767.385 91.8007C770.856 87.4414 772.592 80.983 772.592 72.4257Z" fill="#102137"/>
<path d="M805.218 25.4053C805.218 28.9014 803.977 31.8896 801.497 34.3701C799.026 36.8408 796.043 38.0762 792.547 38.0762C789.051 38.0762 786.062 36.8408 783.582 34.3701C781.111 31.8896 779.876 28.9014 779.876 25.4053C779.876 21.9092 781.111 18.9258 783.582 16.4551C786.062 13.9746 789.051 12.7344 792.547 12.7344C796.043 12.7344 799.026 13.9746 801.497 16.4551C803.977 18.9258 805.218 21.9092 805.218 25.4053ZM803.519 25.4053C803.519 22.3779 802.444 19.7803 800.296 17.6123C798.157 15.4443 795.574 14.3603 792.547 14.3603C789.519 14.3603 786.932 15.4443 784.783 17.6123C782.645 19.7803 781.575 22.3779 781.575 25.4053C781.575 28.4326 782.645 31.0303 784.783 33.1982C786.932 35.3662 789.519 36.4502 792.547 36.4502C795.574 36.4502 798.157 35.3662 800.296 33.1982C802.444 31.0303 803.519 28.4326 803.519 25.4053ZM800.706 31.8506H797.439L792.591 26.6504H790.218V31.8506H787.801V18.4473H792.371C793.289 18.4473 794.046 18.4863 794.642 18.5644C795.237 18.6426 795.823 18.833 796.399 19.1357C797.015 19.4678 797.464 19.873 797.747 20.3516C798.04 20.8203 798.186 21.4111 798.186 22.124C798.186 23.0713 797.908 23.8623 797.352 24.4971C796.805 25.1221 796.048 25.6201 795.081 25.9912L800.706 31.8506ZM795.55 22.2852C795.55 21.9336 795.481 21.6211 795.345 21.3477C795.208 21.0742 794.978 20.8496 794.656 20.6738C794.353 20.5078 794.031 20.4004 793.689 20.3516C793.348 20.3027 792.918 20.2783 792.4 20.2783H790.218V24.8047H792.078C792.684 24.8047 793.206 24.7607 793.645 24.6729C794.085 24.5752 794.446 24.4141 794.729 24.1895C795.032 23.9453 795.242 23.6768 795.359 23.3838C795.486 23.0908 795.55 22.7246 795.55 22.2852Z" fill="#102137"/>
</svg>
