<svg width="162" height="46" viewBox="0 0 162 46" fill="none" xmlns="http://www.w3.org/2000/svg">
<path d="M106.61 15.8649C106.61 16.0411 106.575 16.2156 106.507 16.3785C106.439 16.5412 106.34 16.6892 106.214 16.8138C106.089 16.9385 105.94 17.0374 105.776 17.1049C105.612 17.1723 105.437 17.207 105.259 17.207C105.082 17.207 104.906 17.1723 104.743 17.1049C104.579 17.0374 104.43 16.9385 104.304 16.8138C104.179 16.6892 104.08 16.5412 104.012 16.3785C103.944 16.2156 103.909 16.0411 103.909 15.8649C103.909 15.6887 103.944 15.5142 104.012 15.3513C104.08 15.1886 104.179 15.0405 104.304 14.9158C104.43 14.7912 104.579 14.6924 104.743 14.6249C104.906 14.5575 105.082 14.5227 105.259 14.5227C105.437 14.5227 105.612 14.5575 105.776 14.6249C105.94 14.6924 106.089 14.7912 106.214 14.9158C106.34 15.0405 106.439 15.1886 106.507 15.3513C106.575 15.5142 106.61 15.6887 106.61 15.8649Z" fill="#999B9E"/>
<path d="M130.623 21.7571H127.187V25.1533H130.623V21.7571Z" fill="#999B9E"/>
<path d="M62.4555 21.7571H59.0186V25.1533H62.4555V21.7571Z" fill="#999B9E"/>
<path d="M52.1479 21.7571H48.7109V25.1533H52.1479V21.7571Z" fill="#999B9E"/>
<path d="M41.9947 21.7571H38.5576V25.1533H41.9947V21.7571Z" fill="#999B9E"/>
<path d="M31.4801 21.7571H28.043V25.1533H31.4801V21.7571Z" fill="#999B9E"/>
<path d="M36.2964 14.9781H36.7041C39.338 14.9781 40.5656 16.3424 41.0787 19.9808L41.8942 19.9459L41.7854 14.1733H28.383L28.251 19.9459L29.0358 19.9808C29.1717 18.6165 29.3347 17.8817 29.6885 17.147C30.3139 15.7825 31.6192 14.9781 33.2235 14.9781H33.7946V27.5373C33.7946 28.8665 33.713 29.2864 33.3869 29.6013C33.1149 29.8461 32.5709 29.951 31.9453 29.951H31.3199V30.7906H38.7711V29.951H38.1418C37.5203 29.951 36.9725 29.846 36.7045 29.6013C36.3782 29.2864 36.2967 28.8664 36.2967 27.5373V14.9781" fill="#7B7B7B"/>
<path d="M71.7501 30.7908L76.0925 16.1196V27.6325C76.0925 28.8891 76.0185 29.3306 75.7242 29.6361C75.5031 29.8738 74.9907 29.9758 74.4226 29.9758H74.2019V30.7908H80.3399V29.9758H80.0205C79.4558 29.9758 78.9404 29.874 78.7194 29.6361C78.4246 29.3306 78.351 28.8891 78.351 27.6325V17.8178C78.351 16.5611 78.4246 16.0857 78.7194 15.7802C78.9648 15.5764 79.4558 15.4405 80.0205 15.4405H80.3399V14.6592H75.577L71.9923 26.5117L68.4848 14.6592H63.7464V15.4405H64.1881C65.4895 15.4405 65.7349 15.7121 65.7349 17.3423V26.6815C65.7349 28.1757 65.6613 28.7872 65.4402 29.2287C65.1948 29.6703 64.6757 29.9758 64.139 29.9758H63.7461V30.7908H68.8036V29.9758H68.4846C67.8464 29.9758 67.3306 29.7381 67.0326 29.2626C66.7414 28.7872 66.6678 28.3456 66.6678 26.6815V16.1198L70.9853 30.7909H71.7501" fill="#999B9E"/>
<path d="M85.6198 19.3118C82.5754 19.3118 80.5869 21.6211 80.5869 25.2551C80.5869 28.7532 82.5754 31.1305 85.543 31.1305C88.5379 31.1305 90.5267 28.7532 90.5267 25.2213C90.5267 21.723 88.5379 19.3118 85.6198 19.3118ZM85.5217 20.0929C86.4021 20.0929 87.1631 20.6362 87.5803 21.5532C87.9732 22.4021 88.1451 23.5569 88.1451 25.221C88.1451 28.651 87.2857 30.3489 85.5428 30.3489C83.803 30.3489 82.9647 28.6507 82.9647 25.1869C82.9647 23.5568 83.1398 22.4021 83.5327 21.5532C83.9223 20.6703 84.7115 20.0929 85.5217 20.0929Z" fill="#999B9E"/>
<path d="M94.6028 14.4893L91.1162 14.6591V15.4063H91.2847C92.316 15.4063 92.5405 15.7459 92.5405 17.342V28.3794C92.5405 29.8056 92.4913 30.1794 92.295 30.7906H93.1052C93.7153 29.8056 93.8662 29.636 94.1119 29.636C94.2311 29.636 94.3502 29.6699 94.5258 29.8398C95.7321 30.7906 96.2476 30.9944 97.3526 30.9944C100 30.9944 101.916 28.5152 101.916 24.9833C101.916 21.655 100.144 19.4136 97.4964 19.4136C96.1216 19.4136 95.1184 20.0589 94.6028 21.2135V14.4893ZM97.1492 20.2626C98.7242 20.2626 99.5342 21.8928 99.5342 25.085C99.5342 28.4472 98.6994 30.1792 97.1035 30.1792C95.3358 30.1792 94.4061 28.4131 94.4061 25.1869C94.4061 23.5568 94.6274 22.4362 95.1429 21.5871C95.6058 20.7722 96.395 20.2626 97.1492 20.2626Z" fill="#999B9E"/>
<path d="M106.459 19.4819L102.878 19.6857V20.4328H103.148C104.176 20.4328 104.397 20.7725 104.397 22.3347V28.0742C104.397 29.6366 104.176 30.0102 103.148 30.0102H102.759V30.791H108.104V30.0102H107.718C106.684 30.0102 106.459 29.6703 106.459 28.0742V19.4819" fill="#999B9E"/>
<path d="M112.672 14.4893L109.091 14.6591V15.4063H109.358C110.389 15.4063 110.61 15.7459 110.61 17.342V28.0736C110.61 29.6699 110.389 30.0096 109.358 30.0096H108.969V30.7904H114.318V30.0096H113.924C112.89 30.0096 112.672 29.6697 112.672 28.0736V14.4893Z" fill="#999B9E"/>
<path d="M124.083 25.153C123.964 21.5532 122.197 19.3118 119.524 19.3118C116.943 19.3118 115.08 21.7569 115.08 25.153C115.08 28.7869 116.918 31.1303 119.766 31.1303C121.607 31.1303 122.884 30.1793 123.941 28.0735L123.204 27.7001C122.344 29.466 121.486 30.1793 120.16 30.1793C118.219 30.1793 117.388 28.6852 117.364 25.153H124.083ZM117.388 24.3039C117.409 21.7569 118.265 20.1608 119.644 20.1608C121.018 20.1608 121.828 21.723 121.804 24.3039H117.388Z" fill="#999B9E"/>
<path d="M131.91 19.0352C132.118 19.0352 132.32 19.0865 132.518 19.1897C132.716 19.2928 132.869 19.4403 132.98 19.6321C133.09 19.8238 133.146 20.0238 133.146 20.2322C133.146 20.4382 133.091 20.6365 132.982 20.8265C132.874 21.0168 132.721 21.1645 132.526 21.2697C132.329 21.3749 132.125 21.4276 131.91 21.4276C131.697 21.4276 131.492 21.3751 131.295 21.2697C131.099 21.1645 130.947 21.017 130.838 20.8265C130.728 20.6365 130.674 20.4382 130.674 20.2322C130.674 20.0238 130.729 19.8238 130.84 19.6321C130.951 19.4403 131.105 19.2926 131.303 19.1897C131.501 19.0865 131.704 19.0352 131.91 19.0352ZM131.91 19.2343C131.738 19.2343 131.569 19.2773 131.405 19.3634C131.241 19.4496 131.111 19.5724 131.02 19.7323C130.927 19.8922 130.88 20.0589 130.88 20.2319C130.88 20.404 130.926 20.5688 131.016 20.7267C131.108 20.8846 131.235 21.0075 131.399 21.0957C131.562 21.184 131.732 21.2279 131.91 21.2279C132.088 21.2279 132.258 21.184 132.423 21.0957C132.585 21.0077 132.712 20.8847 132.803 20.7267C132.894 20.5688 132.939 20.404 132.939 20.2319C132.939 20.0589 132.894 19.8922 132.801 19.7323C132.709 19.5726 132.581 19.4496 132.416 19.3634C132.252 19.2773 132.083 19.2343 131.91 19.2343ZM131.369 20.892V19.6048H131.826C131.983 19.6048 132.096 19.6168 132.166 19.6406C132.235 19.6643 132.291 19.7059 132.332 19.7651C132.374 19.8242 132.395 19.8872 132.395 19.9538C132.395 20.0479 132.36 20.1298 132.29 20.1995C132.222 20.2691 132.13 20.3084 132.014 20.3168C132.062 20.3358 132.099 20.3586 132.128 20.385C132.181 20.4356 132.247 20.5207 132.325 20.6401L132.486 20.8923H132.223L132.105 20.6891C132.012 20.5302 131.938 20.4306 131.882 20.3902C131.843 20.3602 131.785 20.3453 131.71 20.3453H131.583V20.8923H131.369V20.892ZM131.583 20.1685H131.845C131.97 20.1685 132.055 20.1505 132.1 20.1144C132.146 20.0781 132.169 20.0304 132.169 19.9709C132.169 19.9327 132.158 19.8985 132.136 19.8682C132.114 19.8381 132.084 19.8154 132.045 19.8005C132.005 19.7855 131.933 19.7784 131.829 19.7784H131.583V20.1685Z" fill="#999B9E"/>
</svg>
