<svg width="56" height="56" viewBox="0 0 56 56" fill="none" xmlns="http://www.w3.org/2000/svg">
<path d="M28.0003 28C33.1549 28 37.3337 23.8212 37.3337 18.6666C37.3337 13.512 33.1549 9.33331 28.0003 9.33331C22.8457 9.33331 18.667 13.512 18.667 18.6666C18.667 23.8212 22.8457 28 28.0003 28Z" stroke="#CCDEA4" stroke-width="2" stroke-linecap="round" stroke-linejoin="round"/>
<path d="M42.8486 31.9664C46.011 30.5482 47.3998 26.9157 45.9503 23.853C45.4974 22.8959 44.821 22.1077 44.0083 21.5197" stroke="#CCDEA4" stroke-width="2" stroke-linecap="round" stroke-linejoin="round"/>
<path d="M12.7269 31.9664C9.56435 30.5482 8.17562 26.9157 9.62511 23.853C10.078 22.8959 10.7545 22.1077 11.5671 21.5197" stroke="#CCDEA4" stroke-width="2" stroke-linecap="round" stroke-linejoin="round"/>
<path d="M16.333 49V44.3333C16.333 41.8579 17.1525 39.484 18.6111 37.7337C20.0697 35.9833 22.048 35 24.1107 35H31.8886C33.9513 35 35.9297 35.9833 37.3883 37.7337C38.8469 39.484 39.6663 41.8579 39.6663 44.3333V49" stroke="#CCDEA4" stroke-width="2" stroke-linecap="round" stroke-linejoin="round"/>
<path d="M44.333 37.3333C45.5706 37.3333 46.7576 37.8249 47.6328 38.7002C48.508 39.5754 48.9997 40.7624 48.9997 42V44.3333" stroke="#CCDEA4" stroke-width="2" stroke-linecap="round" stroke-linejoin="round"/>
<path d="M11.6667 37.3333C10.429 37.3333 9.24201 37.8249 8.36684 38.7002C7.49166 39.5754 7 40.7624 7 42V44.3333" stroke="#CCDEA4" stroke-width="2" stroke-linecap="round" stroke-linejoin="round"/>
</svg>
