<svg width="163" height="46" viewBox="0 0 163 46" fill="none" xmlns="http://www.w3.org/2000/svg">
<path d="M53.079 22.6517C53.079 30.1816 47.0158 36.2861 39.5339 36.2861C32.052 36.2861 25.9863 30.1816 25.9863 22.6517C25.9863 15.1219 32.052 9.01733 39.5339 9.01733C47.0158 9.01733 53.079 15.1219 53.079 22.6517Z" fill="#7B7B7B"/>
<path d="M39.6427 30.2542C35.9216 30.267 32.0488 27.0705 32.0313 21.9354C32.0188 18.5411 33.8408 15.2722 36.1655 13.3333C38.4355 11.4446 41.5442 10.2297 44.3619 10.2197C44.7252 10.2197 45.1061 10.2497 45.3376 10.3299C42.8734 10.8434 40.9121 13.153 40.9196 15.7707C40.9196 15.8583 40.927 15.951 40.9368 15.9935C45.0612 17.0056 46.9329 19.5105 46.9454 22.9749C46.9552 26.4417 44.2373 30.2392 39.6426 30.2542" fill="white"/>
<path d="M61.8292 28.298L57.6875 18.3508H60.3931L62.9766 24.9564L65.4805 18.3508H68.0642L64.0444 28.298H61.8292Z" fill="#7B7B7B"/>
<path d="M75.2724 23.2731C75.2724 22.8597 75.2252 22.4665 75.1281 22.0932C75.0335 21.72 74.8891 21.3993 74.6975 21.1313C74.5058 20.8607 74.2743 20.6478 74.0006 20.49C73.7268 20.3297 73.4057 20.2496 73.0373 20.2496C72.6689 20.2496 72.3454 20.3297 72.0741 20.49C71.8003 20.6478 71.5663 20.8607 71.3771 21.1313C71.1855 21.3993 71.0412 21.72 70.9466 22.0932C70.8495 22.4665 70.8022 22.8597 70.8022 23.2731C70.8022 23.7014 70.8495 24.0996 70.9466 24.4653C71.0412 24.8311 71.1805 25.1517 71.3647 25.4273C71.5489 25.7028 71.7828 25.9208 72.0642 26.0811C72.3428 26.2388 72.6689 26.319 73.0373 26.319C73.4057 26.319 73.7268 26.2389 74.0006 26.0811C74.2743 25.9208 74.5058 25.7028 74.6975 25.4273C74.8891 25.1517 75.0335 24.8311 75.1281 24.4653C75.2251 24.0996 75.2724 23.7014 75.2724 23.2731ZM77.7739 23.2839C77.7739 23.9327 77.6744 24.569 77.4777 25.1952C77.2786 25.8214 76.9849 26.38 76.594 26.876C76.2058 27.372 75.713 27.7703 75.1182 28.0734C74.5232 28.3764 73.8288 28.5268 73.0373 28.5268C72.2434 28.5268 71.5489 28.3764 70.9565 28.0734C70.3616 27.7703 69.8688 27.372 69.478 26.876C69.0897 26.38 68.796 25.8214 68.5969 25.1952C68.4003 24.569 68.3008 23.9327 68.3008 23.2839C68.3008 22.6376 68.4003 22.0064 68.5969 21.3852C68.796 20.7665 69.0897 20.2129 69.478 19.7244C69.8688 19.2359 70.3616 18.8452 70.9565 18.5496C71.5489 18.254 72.2434 18.1038 73.0373 18.1038C73.8288 18.1038 74.5208 18.254 75.1082 18.5496C75.6956 18.8452 76.1884 19.2359 76.5841 19.7244C76.9823 20.2129 77.2786 20.7665 77.4777 21.3852C77.6744 22.0064 77.7739 22.6376 77.7739 23.2839Z" fill="#7B7B7B"/>
<path d="M85.4116 20.5401C84.9212 20.3473 84.4658 20.2496 84.0427 20.2496C83.6095 20.2496 83.2338 20.3348 82.9226 20.5C82.609 20.6653 82.3501 20.8883 82.146 21.1714C81.9419 21.4544 81.7901 21.7726 81.688 22.1257C81.586 22.4764 81.5338 22.8396 81.5338 23.2129C81.5338 23.6262 81.5785 24.0219 81.6681 24.4027C81.7552 24.7809 81.8921 25.1142 82.0763 25.3972C82.2581 25.6802 82.4896 25.9082 82.7682 26.081C83.047 26.2514 83.3781 26.339 83.7589 26.339C84.0725 26.339 84.3911 26.2514 84.7172 26.081C85.0432 25.9082 85.2747 25.7028 85.4116 25.4699V20.5401ZM85.6157 28.2979L85.5136 27.5365C85.2821 27.7969 84.976 28.0274 84.5927 28.2253C84.2119 28.4256 83.7614 28.5258 83.2437 28.5258C82.5641 28.5258 81.9618 28.3807 81.4466 28.0925C80.9264 27.8044 80.4908 27.4187 80.1374 26.9378C79.784 26.4568 79.5127 25.8981 79.3285 25.2644C79.1468 24.6332 79.0547 23.9719 79.0547 23.283C79.0547 22.6367 79.1493 22.0029 79.3384 21.3843C79.53 20.7655 79.8188 20.212 80.207 19.7235C80.5979 19.235 81.0833 18.8443 81.6707 18.5487C82.2555 18.253 82.945 18.1028 83.734 18.1028C84.2518 18.1028 84.8117 18.2004 85.4116 18.3908V14.5332H87.9529V28.2979H85.6157Z" fill="#7B7B7B"/>
<path d="M95.1138 23.634C94.84 23.6485 94.5562 23.6741 94.2675 23.7067C93.9788 23.7417 93.705 23.7868 93.4437 23.842C92.8911 23.952 92.5103 24.14 92.2963 24.408C92.0847 24.6786 91.9776 24.9691 91.9776 25.2872C91.9776 25.6154 92.0972 25.8809 92.3385 26.0814C92.5799 26.2793 92.9185 26.3794 93.359 26.3794C93.6901 26.3794 94.0112 26.3118 94.3198 26.174C94.6284 26.0362 94.8947 25.8634 95.1138 25.658V23.634ZM95.3179 28.2906L95.2183 27.5467C94.942 27.8523 94.5936 28.0927 94.168 28.2657C93.7423 28.4385 93.2769 28.5261 92.7691 28.5261C92.3436 28.5261 91.9329 28.4534 91.5446 28.3082C91.1513 28.1655 90.8054 27.9575 90.5041 27.6895C90.2029 27.4215 89.9591 27.0933 89.7749 26.7C89.5882 26.3068 89.4961 25.8634 89.4961 25.3674C89.4961 24.874 89.5907 24.4355 89.7848 24.0573C89.9765 23.6791 90.2353 23.361 90.5664 23.0979C90.895 22.8374 91.2733 22.6245 91.6988 22.4592C92.122 22.2939 92.57 22.1686 93.0355 22.086C93.364 22.0183 93.7249 21.9681 94.1157 21.933C94.5065 21.8979 94.8325 21.868 95.0939 21.8403V21.6951C95.0939 21.144 94.9545 20.7533 94.6707 20.5178C94.3895 20.2848 94.0012 20.1671 93.5084 20.1671C93.2197 20.1671 92.9433 20.2021 92.682 20.2723C92.4207 20.3399 92.1892 20.4252 91.9826 20.5279C91.7761 20.633 91.5943 20.7357 91.4351 20.8385C91.2783 20.9411 91.1513 21.0338 91.0542 21.1165L90.213 19.3229C90.3225 19.2253 90.4892 19.1101 90.7157 18.9723C90.9423 18.8345 91.2135 18.6992 91.5371 18.569C91.8582 18.4386 92.219 18.3284 92.6222 18.2383C93.0255 18.1481 93.4611 18.103 93.924 18.103C94.4716 18.103 94.9719 18.1757 95.4224 18.321C95.8729 18.4662 96.2637 18.6917 96.5922 19.0024C96.9183 19.3104 97.1747 19.7012 97.3613 20.1771C97.5455 20.6506 97.6376 21.2242 97.6376 21.898V28.2906H95.3179Z" fill="#7B7B7B"/>
<path d="M105.491 16.8028C105.409 16.7628 105.25 16.7026 105.011 16.6273C104.769 16.5523 104.453 16.5146 104.055 16.5146C103.701 16.5146 103.403 16.6225 103.164 16.8353C102.925 17.0482 102.805 17.3964 102.805 17.8774V18.3507H104.938V20.4148H102.825V28.2979H100.281V20.4148H98.9697V18.3507H100.281V17.8147C100.281 17.1684 100.364 16.6223 100.528 16.174C100.692 15.7281 100.921 15.3624 101.215 15.0818C101.508 14.7987 101.855 14.5909 102.25 14.4606C102.648 14.3302 103.079 14.2651 103.545 14.2651C104.159 14.2651 104.667 14.3228 105.07 14.4406C105.474 14.5584 105.71 14.636 105.777 14.6786L105.491 16.8028Z" fill="#7B7B7B"/>
<path d="M112.422 23.2731C112.422 22.8597 112.373 22.4665 112.278 22.0932C112.182 21.72 112.039 21.3993 111.847 21.1313C111.655 20.8607 111.423 20.6478 111.15 20.49C110.876 20.3297 110.555 20.2496 110.187 20.2496C109.818 20.2496 109.495 20.3297 109.224 20.49C108.95 20.6478 108.716 20.8607 108.524 21.1313C108.335 21.3993 108.191 21.72 108.093 22.0932C107.999 22.4665 107.952 22.8597 107.952 23.2731C107.952 23.7014 107.999 24.0996 108.093 24.4653C108.191 24.8311 108.33 25.1517 108.514 25.4273C108.698 25.7028 108.932 25.9208 109.211 26.0811C109.492 26.2388 109.818 26.319 110.187 26.319C110.555 26.319 110.876 26.2389 111.15 26.0811C111.423 25.9208 111.655 25.7028 111.847 25.4273C112.039 25.1517 112.182 24.8311 112.278 24.4653C112.373 24.0996 112.422 23.7014 112.422 23.2731ZM114.923 23.2839C114.923 23.9327 114.823 24.569 114.624 25.1952C114.428 25.8214 114.134 26.38 113.744 26.876C113.355 27.372 112.862 27.7703 112.268 28.0734C111.673 28.3764 110.978 28.5268 110.187 28.5268C109.393 28.5268 108.698 28.3764 108.106 28.0734C107.511 27.7703 107.018 27.372 106.627 26.876C106.239 26.38 105.945 25.8214 105.746 25.1952C105.547 24.569 105.45 23.9327 105.45 23.2839C105.45 22.6376 105.547 22.0064 105.746 21.3852C105.945 20.7665 106.239 20.2129 106.627 19.7244C107.018 19.2359 107.511 18.8452 108.106 18.5496C108.698 18.254 109.393 18.1038 110.187 18.1038C110.978 18.1038 111.67 18.254 112.258 18.5496C112.845 18.8452 113.338 19.2359 113.734 19.7244C114.132 20.2129 114.428 20.7665 114.624 21.3852C114.823 22.0064 114.923 22.6376 114.923 23.2839Z" fill="#7B7B7B"/>
<path d="M122.816 28.298V22.6244C122.816 21.868 122.658 21.2818 122.346 20.8684C122.03 20.4576 121.593 20.2498 121.031 20.2498C120.635 20.2498 120.269 20.3524 119.936 20.5604C119.6 20.7658 119.309 20.9937 119.063 21.2417V28.298H116.521V18.351H118.839L118.96 19.1351C119.359 18.8069 119.804 18.5514 120.305 18.3735C120.802 18.1932 121.305 18.1055 121.81 18.1055C122.33 18.1055 122.809 18.1831 123.246 18.3409C123.685 18.5013 124.061 18.7518 124.374 19.095C124.69 19.4382 124.931 19.8866 125.104 20.4351C125.273 20.9862 125.36 21.6475 125.36 22.4165V28.298H122.816Z" fill="#7B7B7B"/>
<path d="M133.272 22.1285C133.245 21.7853 133.172 21.4848 133.056 21.2317C132.939 20.9762 132.794 20.7708 132.623 20.613C132.45 20.4527 132.267 20.3375 132.067 20.2598C131.866 20.1848 131.664 20.1471 131.457 20.1471C131.017 20.1471 130.598 20.3124 130.201 20.6431C129.802 20.9737 129.569 21.4672 129.499 22.1285H133.272ZM129.439 23.9646C129.493 24.8037 129.752 25.41 130.22 25.7807C130.686 26.1514 131.291 26.3393 132.03 26.3393C132.373 26.3393 132.697 26.3068 132.998 26.2466C133.299 26.184 133.568 26.1062 133.802 26.0087C134.036 25.9134 134.235 25.8157 134.399 25.7206C134.564 25.6229 134.686 25.5327 134.771 25.45L135.447 27.5366C135.35 27.6042 135.196 27.6969 134.984 27.8147C134.773 27.9325 134.509 28.0401 134.195 28.1453C133.881 28.2481 133.511 28.3357 133.088 28.4134C132.665 28.4884 132.199 28.5261 131.693 28.5261C131.049 28.5261 130.439 28.4233 129.857 28.2179C129.277 28.0101 128.766 27.6894 128.331 27.2561C127.893 26.8227 127.544 26.2841 127.286 25.6378C127.025 24.9916 126.895 24.2201 126.895 23.3258C126.895 22.4866 127.015 21.7428 127.254 21.0965C127.492 20.4502 127.82 19.9065 128.237 19.4657C128.655 19.0273 129.14 18.6892 129.692 18.4537C130.248 18.2208 130.838 18.103 131.467 18.103C132.097 18.103 132.677 18.2083 133.213 18.4136C133.745 18.619 134.205 18.9397 134.596 19.3731C134.984 19.8064 135.293 20.3674 135.517 21.0564C135.743 21.7426 135.856 22.5619 135.856 23.5112V23.9646H129.439Z" fill="#7B7B7B"/>
</svg>
