<svg width="162" height="46" viewBox="0 0 162 46" fill="none" xmlns="http://www.w3.org/2000/svg">
<path d="M51.192 34.8139H45.3467V24.0671H51.0525C53.5615 24.0671 55.1064 25.1557 55.1064 26.8456V26.8777C55.1064 28.0908 54.3688 28.7652 53.4939 29.1946C54.9172 29.6692 55.7921 30.3928 55.7921 31.8358V31.8679C55.7921 33.8326 53.9659 34.8139 51.192 34.8139ZM52.4211 27.2428C52.4211 26.5385 51.79 26.1392 50.6469 26.1392H47.9789V28.413H50.4707C51.6667 28.413 52.4211 28.0737 52.4211 27.2751V27.2428ZM53.1045 31.5437C53.1045 30.8222 52.4908 30.3778 51.1044 30.3778H47.9789V32.7397H51.192C52.3876 32.7397 53.1045 32.3747 53.1045 31.5738V31.5437Z" fill="#4F4F4F"/>
<path d="M62.4839 34.9963C58.8653 34.9963 56.1807 32.5571 56.1807 29.4716V29.4416C56.1807 26.386 58.814 23.8823 62.5883 23.8823C64.9076 23.8823 66.2962 24.5566 67.4376 25.5401L65.7132 27.275C64.7664 26.5212 63.8012 26.0617 62.5715 26.0617C60.4995 26.0617 59.0059 27.5669 59.0059 29.4093V29.4415C59.0059 31.2817 60.4654 32.819 62.5715 32.819C63.9758 32.819 64.8389 32.3273 65.803 31.5587L67.5231 33.0789C66.2615 34.262 64.854 34.9963 62.4839 34.9963Z" fill="#4F4F4F"/>
<path d="M36.0069 31.9109V27.9815L41.9593 34.8139H44.2596V24.0671H41.5927V30.6848L35.8339 24.0671H33.3389V32.4626V33.7855V34.8118H36.0069V33.5362V31.9109Z" fill="#4F4F4F"/>
<path d="M75.0677 28.512C77.369 29.0702 78.5673 29.8883 78.5673 31.6941C78.5673 33.7339 76.9651 34.9407 74.6777 34.9407C73.0123 34.9407 71.4388 34.3695 70.1328 33.21L71.2835 31.8486C72.327 32.7462 73.3691 33.2572 74.7242 33.2572C75.9073 33.2572 76.6546 32.7161 76.6546 31.8809C76.6546 31.0929 76.2162 30.6763 74.1954 30.2104C71.8729 29.6564 70.5682 28.9756 70.5682 26.968C70.5682 25.0807 72.1244 23.8137 74.2883 23.8137C75.8759 23.8137 77.1364 24.2926 78.2416 25.1729L77.2137 26.6115C76.2338 25.8857 75.2524 25.4993 74.2559 25.4993C73.1355 25.4993 72.4817 26.0705 72.4817 26.7984C72.4817 27.6466 72.9814 28.018 75.0677 28.512Z" fill="#4F4F4F"/>
<path d="M83.797 31.3096H81.6335V34.7838H79.7188V23.9683H84.0154C86.5525 23.9683 88.1574 25.3918 88.1574 27.6014C88.1574 30.0427 86.1935 31.3096 83.797 31.3096ZM83.8608 25.699H81.6335V29.5939H83.8608C85.3088 29.5939 86.2086 28.8037 86.2086 27.6464C86.2086 26.3646 85.2915 25.699 83.8608 25.699Z" fill="#4F4F4F"/>
<path d="M94.6351 34.9709C91.288 34.9709 88.9531 32.4522 88.9531 29.3904C88.9531 26.3348 91.3216 23.7839 94.6644 23.7839C98.0116 23.7839 100.347 26.3026 100.347 29.3624C100.347 32.4222 97.9812 34.9709 94.6351 34.9709ZM94.6351 25.5319C92.4722 25.5319 90.9625 27.2453 90.9625 29.3624C90.9625 31.4795 92.5026 33.2253 94.6644 33.2253C96.8294 33.2253 98.3403 31.5096 98.3403 29.3904C98.3402 27.2754 96.797 25.5319 94.6351 25.5319Z" fill="#4F4F4F"/>
<path d="M108.445 34.7838L105.767 31.0155H103.371V34.7838H101.458V23.9683H106.313C108.82 23.9683 110.36 25.2823 110.36 27.3995C110.36 29.1924 109.285 30.2724 107.762 30.691L110.702 34.7838H108.445ZM106.157 25.699H103.371V29.3298H106.172C107.541 29.3298 108.415 28.6211 108.415 27.509C108.415 26.3195 107.574 25.699 106.157 25.699Z" fill="#4F4F4F"/>
<path d="M116.341 34.7838H114.412V25.7312H110.957V23.9683H119.799V25.7312H116.341V34.7838Z" fill="#4F4F4F"/>
<path d="M124.862 28.512C127.168 29.0702 128.366 29.8883 128.366 31.6941C128.366 33.7339 126.764 34.9407 124.472 34.9407C122.809 34.9407 121.236 34.3695 119.929 33.21L121.081 31.8486C122.124 32.7462 123.165 33.2572 124.52 33.2572C125.704 33.2572 126.452 32.7161 126.452 31.8809C126.452 31.0929 126.015 30.6763 123.994 30.2104C121.672 29.6564 120.364 28.9756 120.364 26.968C120.364 25.0807 121.921 23.8137 124.084 23.8137C125.672 23.8137 126.934 24.2926 128.038 25.1729L127.013 26.6115C126.03 25.8857 125.048 25.4993 124.055 25.4993C122.933 25.4993 122.28 26.0705 122.28 26.7984C122.28 27.6466 122.775 28.018 124.862 28.512Z" fill="#4F4F4F"/>
<path d="M61.2853 43.0937C59.549 43.0937 58.4756 41.8396 58.4756 40.2657C58.4756 38.7541 59.5884 37.4229 61.2453 37.4229C62.1769 37.4229 62.7529 37.6869 63.3065 38.1507L62.903 38.621C62.4771 38.2517 62.0028 37.9919 61.222 37.9919C59.9983 37.9919 59.1223 39.0202 59.1223 40.2486C59.1223 41.5669 59.9664 42.5375 61.3085 42.5375C61.9395 42.5375 62.5246 42.2949 62.903 41.9899V40.6265H61.222V40.0703H63.5023V42.2539C62.9897 42.7093 62.2153 43.0937 61.2853 43.0937Z" fill="#4F4F4F"/>
<path d="M72.6606 43.0013L71.0584 40.8669H69.4805V43.0013H68.8555V37.5151H71.232C72.4481 37.5151 73.229 38.1657 73.229 39.1535C73.229 40.0704 72.5991 40.6027 71.7306 40.7574L73.4275 43.0013H72.6606ZM71.1855 38.0884H69.4805V40.3129H71.1769C72.0064 40.3129 72.5991 39.8899 72.5991 39.1749C72.599 38.4942 72.0761 38.0884 71.1855 38.0884Z" fill="#4F4F4F"/>
<path d="M81.0781 43.0935C79.3959 43.0935 78.2686 41.7859 78.2686 40.2656C78.2686 38.7453 79.4122 37.4204 81.0923 37.4204C82.7761 37.4204 83.903 38.7303 83.903 40.2505C83.903 41.7686 82.7576 43.0935 81.0781 43.0935ZM81.0781 37.9938C79.8155 37.9938 78.9163 38.9965 78.9163 40.2505C78.9163 41.5023 79.8295 42.5222 81.0922 42.5222C82.3564 42.5222 83.2551 41.5195 83.2551 40.2656C83.2551 39.0116 82.3402 37.9938 81.0781 37.9938Z" fill="#4F4F4F"/>
<path d="M93.6848 40.6565C93.6848 42.2562 92.759 43.085 91.3791 43.085C90.0132 43.085 89.082 42.2562 89.082 40.7037V37.5151H89.705V40.6652C89.705 41.8482 90.3366 42.5139 91.3942 42.5139C92.4128 42.5139 93.0597 41.9019 93.0597 40.7038V37.5152H93.6847V40.6565H93.6848Z" fill="#4F4F4F"/>
<path d="M101.074 41.0645H99.7333V43.0013H99.1104V37.5151H101.177C102.425 37.5151 103.244 38.1742 103.244 39.263C103.244 40.4526 102.251 41.0645 101.074 41.0645ZM101.131 38.0884H99.7333V40.4997H101.099C102.013 40.4997 102.614 40.0144 102.614 39.2867C102.614 38.4942 102.022 38.0884 101.131 38.0884Z" fill="#4F4F4F"/>
<path d="M95.4717 19.2816C96.7782 17.5605 96.3889 15.0644 94.6413 13.7987C94.0562 13.3768 93.3717 13.1384 92.6515 13.1009C93.4518 12.4255 93.9816 11.4819 94.0616 10.4362C94.1524 9.23366 93.6615 8.00759 92.7791 7.23036C91.5028 6.15559 89.6493 5.87221 88.1742 6.73009C88.3785 5.49864 87.9664 4.22643 87.0321 3.30525C86.3453 2.60963 85.3557 2.21021 84.3186 2.21021C82.9139 2.21021 81.4912 3.02828 80.8644 4.29624C80.2377 3.02828 78.8156 2.21021 77.4102 2.21021C76.3714 2.21021 75.3835 2.60963 74.6962 3.30525C73.7634 4.22643 73.3503 5.49864 73.5563 6.73009C72.0791 5.87221 70.2275 6.15569 68.9499 7.23036C68.0679 8.00759 67.5763 9.23366 67.6672 10.4362C67.7478 11.4818 68.2772 12.4255 69.0769 13.1009C68.3572 13.1384 67.6727 13.3768 67.0859 13.7987C66.4224 14.2754 65.9217 14.9667 65.648 15.73C65.2771 17.0291 65.4988 18.296 66.2731 19.302C67.0226 20.2735 68.1787 20.8318 69.4435 20.8318H92.2857C93.5499 20.8318 94.706 20.2735 95.4555 19.3008L95.4717 19.2816Z" fill="white"/>
<path d="M71.6415 7.08105C70.8877 7.08105 70.1556 7.35596 69.5267 7.87659C68.8546 8.46816 68.4647 9.44728 68.5344 10.3706C68.5853 11.0406 68.8918 11.9982 70.0604 12.7529L78.7171 18.6738L74.5231 9.17031C73.9997 7.86046 72.923 7.08105 71.6415 7.08105Z" fill="#ADADAD"/>
<path d="M80.0232 4.55943C80.3326 5.13591 80.5185 5.79627 80.4066 6.51982C80.4066 6.51982 78.7287 16.5291 78.7136 16.5333L74.5164 7.01263C74.1509 5.88852 74.4964 4.71621 75.3123 3.9121C76.1342 3.07685 77.4963 2.84706 78.5692 3.3044C79.1419 3.54815 79.6836 4.00333 80.0232 4.55943Z" fill="#909090"/>
<path d="M90.0878 7.08105C90.8417 7.08105 91.5737 7.35596 92.2032 7.87659C92.8747 8.46816 93.2653 9.44728 93.195 10.3706C93.1441 11.0406 92.837 11.9982 91.6679 12.7529L83.0107 18.6738L87.2057 9.17031C87.7304 7.86046 88.8062 7.08105 90.0878 7.08105Z" fill="#A9A9A9"/>
<path d="M82.5823 6.13342C82.6818 6.13342 82.8364 6.20964 82.8569 6.30511C82.3249 6.64009 81.4414 7.01055 81.5494 7.7824L81.6738 8.62406C82.167 11.5593 83.0019 16.5301 83.0139 16.5333L87.211 7.01263C87.5766 5.88748 87.2306 4.71621 86.4151 3.9121C85.5932 3.07685 84.2305 2.84706 83.1577 3.3044C82.5846 3.54815 82.0449 4.00333 81.7037 4.55839C81.4512 5.03291 81.2808 5.55901 81.2883 6.13342H82.5823Z" fill="#919191"/>
<path d="M92.4525 13.9575C93.8086 13.9575 94.9388 14.9473 95.2447 15.9662C95.5422 16.97 95.3681 17.993 94.7657 18.7768C94.1829 19.5358 93.2776 19.9686 92.286 19.9686H82.6436L90.5945 14.5254C91.1829 14.1539 91.8274 13.9575 92.4525 13.9575Z" fill="#B3B3B3"/>
<path d="M69.2757 13.9575C67.9189 13.9575 66.7894 14.9473 66.4822 15.9662C66.186 16.97 66.3595 17.993 66.963 18.7768C67.547 19.5358 68.4505 19.9686 69.4427 19.9686H79.0851L71.1346 14.5254C70.5458 14.1539 69.9013 13.9575 69.2757 13.9575Z" fill="#D2D2D2"/>
</svg>
