<svg width="163" height="46" viewBox="0 0 163 46" fill="none" xmlns="http://www.w3.org/2000/svg">
<path fill-rule="evenodd" clip-rule="evenodd" d="M82.7658 31.8672H80.8682V23.5062H82.6278V24.3596C82.9053 24.0375 83.2473 23.7767 83.6306 23.5937C84.0147 23.4107 84.4326 23.3096 84.8581 23.2967C86.0251 23.2617 86.8431 23.6971 87.435 24.3245C88.0629 24.9519 88.2891 25.9622 88.2891 27.1469V31.868H86.3379V27.4781C86.3379 26.6072 86.2159 26.2584 85.9537 25.7887C85.519 25.022 84.0201 24.8126 83.2358 25.6836C82.801 26.1883 82.765 26.955 82.765 28.1046V31.8672H82.7658ZM18.2239 31.8672H16.3076V23.5062H18.0837V24.3596C18.5894 23.7672 19.4086 23.3143 20.3138 23.2967C21.4809 23.2617 22.2993 23.6971 22.8916 24.3245C23.519 24.9519 23.746 25.9622 23.746 27.1469V31.868H21.7946V27.4781C21.7946 26.6072 21.6727 26.2584 21.4116 25.7887C20.9762 25.022 19.4779 24.8126 18.6936 25.6836C18.2581 26.1883 18.2231 26.955 18.2231 28.1046V31.8672H18.2239ZM100.605 28.5567C100.848 29.9157 102.085 30.3688 102.923 30.3688C103.916 30.3688 104.42 30.02 104.838 29.5661H106.98C106.284 31.274 104.804 32.0924 102.905 32.0924C102.328 32.0981 101.756 31.9892 101.222 31.7718C100.688 31.5544 100.203 31.2328 99.7942 30.8261C99.3856 30.4192 99.0619 29.9351 98.8419 29.402C98.6227 28.8689 98.5114 28.2974 98.5145 27.7207C98.5145 25.3515 100.361 23.3484 102.991 23.3484C105.726 23.3484 107.364 25.5083 107.277 28.052L107.259 28.5576H100.605V28.5567ZM26.7252 28.5567C26.9687 29.9157 28.2059 30.3688 29.0428 30.3688C30.018 30.3688 30.5403 30.02 30.959 29.5661H33.1014C32.3873 31.274 30.924 32.0924 29.0252 32.0924C28.4487 32.0981 27.8768 31.9892 27.3427 31.7718C26.8086 31.5544 26.3232 31.2328 25.9147 30.8261C25.5061 30.4192 25.1825 29.9351 24.9629 29.402C24.7433 28.8689 24.6319 28.2974 24.6354 27.7207C24.6354 25.3515 26.4815 23.3484 29.112 23.3484C31.8476 23.3484 33.4843 25.5083 33.3977 28.052L33.3801 28.5576H26.7252V28.5567ZM39.4428 26.2576L37.8392 31.8672H36.6204L33.5369 23.5921H35.6277L37.2128 28.6785L38.7287 23.5921H40.2437L41.7068 28.6785L43.3095 23.5921H45.3651L42.2818 31.8672H41.132L39.4428 26.2576ZM50.173 30.8568V31.8662H48.3619V20.6479H50.3308V24.4104C51.0449 23.5921 51.9685 23.1741 53.0829 23.1741C55.5049 23.1741 57.281 25.2814 57.281 27.6857C57.281 30.1944 55.5742 32.1098 53.0655 32.1098C51.8457 32.1098 50.9047 31.6236 50.173 30.8568ZM78.0284 31.8672V30.8577C77.2792 31.6244 76.1988 32.059 75.1192 32.059C72.6282 32.059 70.9037 30.1953 70.9037 27.6867C70.9037 25.3173 72.6974 23.1924 75.1544 23.1924C76.2698 23.1924 77.3493 23.7848 78.0293 24.5865V23.507H79.8063V31.868H78.0284V31.8672ZM65.2065 31.8672V30.8577C64.4583 31.6244 63.3778 32.059 62.2974 32.059C59.8063 32.059 58.0819 30.1953 58.0819 27.6867C58.0819 25.3173 59.8756 23.1924 62.3326 23.1924C63.4646 23.1924 64.5274 23.7848 65.2065 24.5865V23.507H66.9835V31.868H65.2065V31.8672ZM68.0639 31.8672V20.5962H69.9285V31.8672H68.0639ZM98.0093 29.0448C97.33 30.9252 95.8495 32.0932 93.7411 32.0932C91.2509 32.0932 89.3172 30.1077 89.3172 27.7217C89.3172 25.3348 91.2509 23.1574 93.7771 23.1574C95.7965 23.1574 97.3829 24.2895 98.0093 26.1191H95.7965C95.3963 25.5618 94.908 25.0045 93.7411 25.0045C92.2438 25.0045 91.2684 26.2058 91.2684 27.7217C91.2684 28.697 92.1395 30.1953 93.7411 30.1953C94.8567 30.1953 95.5367 29.6713 95.8664 29.0457H98.0093V29.0448ZM147.569 16.2404C147.569 15.4045 146.908 14.7254 146.072 14.7254C145.237 14.7254 144.574 15.4045 144.574 16.2404C144.568 16.4414 144.601 16.6417 144.674 16.8294C144.746 17.0171 144.854 17.1884 144.994 17.3329C145.135 17.4774 145.302 17.5925 145.487 17.671C145.672 17.7496 145.872 17.79 146.072 17.79C146.273 17.79 146.473 17.7496 146.657 17.671C146.843 17.5925 147.01 17.4774 147.149 17.3329C147.289 17.1884 147.399 17.0171 147.471 16.8294C147.542 16.6417 147.577 16.4414 147.569 16.2404ZM121.282 14.3767H126.126V14.7254L121.282 14.3767ZM120.516 15.6481L126.091 15.4396L126.055 16.0494L120.516 15.6481ZM119.732 16.9555L126.039 16.6935L126.005 17.4251L119.732 16.9555ZM118.931 18.2961L125.968 17.9999L125.934 18.7842L118.931 18.2961ZM118.164 19.6035L125.917 19.2897L125.883 20.1607L118.164 19.6035ZM117.225 31.692L117.05 31.9714L110.779 31.9538L117.225 31.692ZM118.078 30.2461L117.643 30.9953L111.666 30.474L118.078 30.2461ZM118.914 28.8529L118.46 29.6029L112.469 29.1149L118.914 28.8529ZM119.715 27.4939L119.297 28.2255L113.27 27.7909L119.715 27.4939ZM120.552 26.1181L120.115 26.8498L114.104 26.3969L120.552 26.1181Z" fill="#757575"/>
<path fill-rule="evenodd" clip-rule="evenodd" d="M131.508 31.9706H120.603L120.639 31.5526L122.973 31.4483L120.673 31.2565L120.794 30.1411L123.896 30.0367L120.831 29.7941L120.952 28.7654L124.716 28.6095L120.987 28.3475L121.092 27.4413L125.464 27.2328L121.143 26.9192L121.232 26.0824L126.404 25.8562L114.908 25.037L127.118 24.5138L115.709 23.6955L128.026 23.1733L116.528 22.3189L128.758 21.8143L117.347 20.9607L129.645 20.4385L126.423 20.2117L126.998 19.2539L130.465 19.1146L127.224 18.8876L127.782 17.9124L131.075 17.7897L128.007 17.5636L128.582 16.5875L131.753 16.4482L128.791 16.2388L129.349 15.2986L132.834 15.1593L129.559 14.9508L129.907 14.376H138.565C138.565 14.376 143.497 13.9754 143.497 17.9124C143.497 17.9124 143.373 21.3096 138.74 23.225C138.74 23.225 140.987 24.1485 140.638 26.0814C139.452 30.1235 136.386 31.9706 131.508 31.9706Z" fill="#757575"/>
<path fill-rule="evenodd" clip-rule="evenodd" d="M105.341 26.8666C105.098 25.5778 103.81 25.1248 103.025 25.1248C102.031 25.1248 100.829 25.682 100.5 26.8666H105.341ZM31.463 26.8666C31.2194 25.5778 29.9296 25.1248 29.1462 25.1248C28.1535 25.1248 26.9513 25.682 26.6201 26.8666H31.463ZM50.1723 27.7202C50.1723 29.0608 51.3395 30.2813 52.7326 30.2813C54.2661 30.2813 55.3631 29.0958 55.3631 27.6334C55.3631 26.2227 54.2134 25.0731 52.7502 25.0731C51.2526 25.0722 50.1723 26.3269 50.1723 27.7202ZM72.8886 27.6159C72.8886 29.0441 74.0032 30.2288 75.5365 30.2288C76.9296 30.2288 78.0968 29.0275 78.0968 27.7034C78.0968 26.3279 76.9822 25.0731 75.5015 25.0731C74.0382 25.0722 72.8886 26.2042 72.8886 27.6159ZM60.0675 27.6159C60.0675 29.0441 61.1821 30.2288 62.7147 30.2288C64.1254 30.2288 65.275 29.0275 65.275 27.7034C65.275 26.3279 64.178 25.0731 62.6795 25.0731C61.2171 25.0722 60.0675 26.2042 60.0675 27.6159ZM134.958 21.4489H132.762L134.678 18.2612H136.054C136.054 18.2612 137.622 18.3488 137.466 19.6369C137.309 21.0652 135.828 21.4489 134.958 21.4489ZM131.143 27.9462H128.912L131.143 24.1837H133.337C133.337 24.1837 134.801 24.2362 134.541 25.5594C134.278 26.9017 132.849 27.9462 131.143 27.9462ZM147.396 16.2398C147.396 16.5912 147.257 16.9281 147.008 17.1766C146.76 17.425 146.423 17.5647 146.071 17.5647C145.72 17.5647 145.383 17.425 145.134 17.1766C144.887 16.9281 144.746 16.5912 144.746 16.2398C144.746 15.509 145.341 14.8992 146.071 14.8992C146.804 14.8992 147.396 15.509 147.396 16.2398Z" fill="white"/>
<path fill-rule="evenodd" clip-rule="evenodd" d="M145.514 17.024H145.725V16.3099H146.264C146.612 16.3099 146.525 16.6061 146.56 16.8146L146.595 17.024H146.839C146.75 16.8671 146.785 16.8321 146.768 16.6227C146.734 16.3266 146.734 16.3099 146.56 16.2047C146.718 16.0821 146.785 15.9953 146.785 15.7858C146.751 15.4022 146.509 15.3679 146.247 15.3679H145.514V17.024Z" fill="#757575"/>
<path fill-rule="evenodd" clip-rule="evenodd" d="M146.265 15.5432C146.386 15.5432 146.596 15.5782 146.56 15.8744C146.542 16.083 146.405 16.118 146.265 16.118H145.726V15.5432H146.265Z" fill="white"/>
</svg>
