<svg width="162" height="46" viewBox="0 0 162 46" fill="none" xmlns="http://www.w3.org/2000/svg">
<path d="M35.6717 34.1541C35.4701 34.1676 35.4701 34.4497 35.6717 34.4632C41.0859 34.8125 63.0919 35.0274 80.8257 35.0274C98.5595 35.0274 120.566 34.8125 125.98 34.4632C126.181 34.4497 126.181 34.1676 125.98 34.1541C120.566 33.8048 98.5595 33.5899 80.8257 33.5899C63.0919 33.5899 41.0859 33.7914 35.6717 34.1541ZM54.6011 17.1727C55.3669 16.2323 55.958 15.6277 57.2344 15.6277C57.9598 15.6277 58.3897 15.7755 58.9809 16.0845C58.9405 16.1786 58.1076 17.7504 58.0673 17.8444C57.6777 17.5758 57.3553 17.4683 56.8985 17.4683C56.5357 17.4683 56.1596 17.5623 55.8505 17.7235C54.5205 18.449 54.5205 20.182 54.5205 21.4449C54.5205 21.4449 54.5205 27.5711 54.5205 27.6786C54.4265 27.6786 52.6934 27.6786 52.5994 27.6786C52.5994 27.5711 52.5994 15.9635 52.5994 15.8695C52.6934 15.8695 54.4265 15.8695 54.5205 15.8695C54.5205 15.9635 54.5205 17.2936 54.5205 17.2936L54.6011 17.1727ZM74.5786 9.95826C74.5786 10.0657 74.5786 27.5711 74.5786 27.6786C74.6726 27.6786 76.4056 27.6786 76.4997 27.6786C76.4997 27.5711 76.4997 10.0657 76.4997 9.95826C76.3923 9.95826 74.6726 9.95826 74.5786 9.95826ZM79.4419 21.7271C79.4419 18.1938 81.8064 15.6277 85.0577 15.6277C86.7638 15.6277 88.0267 16.2323 89.1418 17.5758L89.2358 17.6832C89.2358 17.6832 89.2358 15.9635 89.2358 15.8561C89.3299 15.8561 91.0629 15.8561 91.1569 15.8561C91.1569 15.9635 91.1569 27.5711 91.1569 27.6651C91.0629 27.6651 89.3299 27.6651 89.2358 27.6651C89.2358 27.5711 89.2358 25.865 89.2358 25.865L89.1418 25.9725C88.0402 27.3025 86.7101 27.9474 85.0845 27.9474C81.39 27.9607 79.4419 24.8305 79.4419 21.7271ZM81.4168 21.7271C81.4168 23.9572 82.7737 26.2142 85.3666 26.2142C88.1072 26.2142 89.3432 23.8901 89.3432 21.7271C89.3432 19.1476 87.7043 17.3474 85.3666 17.3474C82.8006 17.3474 81.4168 19.6044 81.4168 21.7271ZM103.436 17.5891L103.396 17.5086C102.724 16.2994 101.582 15.6277 100.198 15.6277C98.9626 15.6277 98.1027 16.0845 97.3101 17.1458L97.216 17.2667C97.216 17.2667 97.216 15.9502 97.216 15.8561C97.1219 15.8561 95.3889 15.8561 95.2949 15.8561C95.2949 15.9635 95.2949 27.5711 95.2949 27.6651C95.3889 27.6651 97.1219 27.6651 97.216 27.6651C97.216 27.5577 97.216 21.23 97.216 21.23C97.216 20.4239 97.2698 19.4028 97.6727 18.6505C98.0758 17.8714 98.9491 17.3474 99.8492 17.3474C101.314 17.3474 102.066 18.4624 102.066 20.6792C102.066 20.6792 102.066 27.5846 102.066 27.6786C102.16 27.6786 103.893 27.6786 103.987 27.6786C103.987 27.5711 103.987 21.1091 103.987 21.1091C103.987 18.6236 104.86 17.3608 106.567 17.3608C108.501 17.3608 108.756 19.0401 108.756 20.5179C108.756 20.5179 108.756 27.5846 108.756 27.6921C108.851 27.6921 110.584 27.6921 110.678 27.6921C110.678 27.5846 110.678 20.2089 110.678 20.2089C110.678 19.2282 110.597 18.0996 110.033 17.213C109.401 16.2457 108.206 15.6411 106.889 15.6411C105.371 15.6411 104.202 16.286 103.49 17.522L103.436 17.5891ZM119.652 27.907C121.949 27.907 123.669 26.8457 124.918 24.6826C124.851 24.6424 123.467 23.8901 123.387 23.8497C122.486 25.3006 121.519 26.268 119.706 26.268C117.193 26.268 115.957 24.2125 115.85 22.1838V22.0764C115.85 22.0764 124.972 22.0764 125.08 22.0764C125.08 21.9957 125.08 21.7808 125.08 21.7808C125.08 18.1266 122.85 15.6814 119.545 15.6814C116.24 15.6814 113.928 18.2071 113.928 21.8345C113.928 25.4216 116.28 27.907 119.652 27.907ZM119.598 17.3205C121.345 17.3205 122.769 18.5834 123.145 20.4508L123.171 20.5716H115.97L115.998 20.4508C116.334 18.6371 117.852 17.3205 119.598 17.3205ZM62.6351 15.8561C62.6351 15.9635 62.6351 27.5711 62.6351 27.6651C62.541 27.6651 60.8079 27.6651 60.7139 27.6651C60.7139 27.5577 60.7139 15.9502 60.7139 15.8561C60.8079 15.8561 62.541 15.8561 62.6351 15.8561ZM61.6813 9.95826C61.0229 9.95826 60.4855 10.4956 60.4855 11.154C60.4855 11.8122 61.0229 12.3497 61.6813 12.3497C62.3395 12.3497 62.877 11.8122 62.877 11.154C62.877 10.4956 62.3395 9.95826 61.6813 9.95826ZM38.493 26.1874C39.823 27.4771 41.5158 28.0548 43.1683 28.0145C44.8207 27.9742 46.4194 27.3294 47.548 26.1739C48.663 25.0454 49.2945 23.5005 49.3482 21.9285C49.4019 20.3567 48.8914 18.7715 47.7226 17.5758C46.7149 16.5413 45.3177 15.9098 43.7324 15.9098C40.3872 15.9098 39.0841 18.852 39.0303 19.7924C39.0169 20.1417 39.3796 20.1015 39.4334 19.8462C39.8633 18.0191 41.7307 17.1995 43.1279 17.1995C44.3236 17.1995 45.4252 17.643 46.2179 18.4222C48.0181 20.1687 47.8569 23.1645 46.191 24.8439C44.4445 26.6038 41.3679 26.671 39.4199 24.6558C38.5063 23.7154 37.9287 22.3853 37.9287 20.8672C37.9287 18.758 38.7079 17.0115 40.8306 15.7351C41.0724 15.6009 40.9515 15.2515 40.6559 15.3725C38.3049 16.2591 36.5583 19.0535 36.5583 21.5524C36.5718 23.4333 37.3241 25.0454 38.493 26.1874ZM65.1743 15.8561V17.4548H67.0685V27.6651H69.0434V17.4548H71.0586V15.8561H69.0434C69.0704 14.2842 69.2181 13.4378 69.6345 12.5914C70.1182 11.5973 70.8705 10.939 71.8647 10.6166C72.429 10.4419 73.1814 10.3344 73.7859 10.3344C74.0411 10.3344 74.0814 10.0523 73.8262 10.012C73.5575 9.9717 73.2754 9.94482 72.9933 9.94482C72.3618 9.94482 71.6632 10.0657 70.9646 10.2941C69.8092 10.6703 68.842 11.3824 68.1568 12.4034C67.4716 13.4244 67.176 14.5261 67.1088 15.8561H65.1743Z" fill="#585858"/>
</svg>
